<mxfile host="app.diagrams.net" agent="Mozilla/5.0 (Windows NT 10.0; Win64; x64) AppleWebKit/537.36 (KHTML, like Gecko) Chrome/133.0.0.0 Safari/537.36" version="26.0.16" pages="2">
  <diagram name="Page-1" id="g1LcvF8aphsJXnMWTRCQ">
    <mxGraphModel dx="1900" dy="1657" grid="1" gridSize="10" guides="1" tooltips="1" connect="1" arrows="1" fold="1" page="1" pageScale="1" pageWidth="850" pageHeight="1100" math="0" shadow="0">
      <root>
        <mxCell id="0" />
        <mxCell id="1" parent="0" />
        <mxCell id="uA1yaRW771HfkSEceYEn-1" value="Data Integration Flow" style="text;html=1;align=center;verticalAlign=middle;whiteSpace=wrap;rounded=0;fontSize=38;fontStyle=1" parent="1" vertex="1">
          <mxGeometry x="-20" y="-20" width="430" height="40" as="geometry" />
        </mxCell>
        <mxCell id="uA1yaRW771HfkSEceYEn-2" value="&lt;span style=&quot;font-size: 16px; text-align: left;&quot;&gt;crm_sales_details&lt;/span&gt;" style="swimlane;fontStyle=0;childLayout=stackLayout;horizontal=1;startSize=30;horizontalStack=0;resizeParent=1;resizeParentMax=0;resizeLast=0;collapsible=1;marginBottom=0;whiteSpace=wrap;html=1;rounded=1;shadow=0;labelBackgroundColor=none;fillColor=#dae8fc;strokeColor=#6c8ebf;fontSize=20;" parent="1" vertex="1">
          <mxGeometry x="180" y="210" width="160" height="90" as="geometry" />
        </mxCell>
        <mxCell id="uA1yaRW771HfkSEceYEn-3" value="&lt;span style=&quot;font-size: 16px;&quot;&gt;prm_key&lt;/span&gt;" style="text;strokeColor=none;fillColor=none;align=left;verticalAlign=middle;spacingLeft=4;spacingRight=4;overflow=hidden;points=[[0,0.5],[1,0.5]];portConstraint=eastwest;rotatable=0;whiteSpace=wrap;html=1;" parent="uA1yaRW771HfkSEceYEn-2" vertex="1">
          <mxGeometry y="30" width="160" height="30" as="geometry" />
        </mxCell>
        <mxCell id="uA1yaRW771HfkSEceYEn-6" value="&lt;span style=&quot;font-size: 16px;&quot;&gt;cust_id&lt;/span&gt;" style="text;strokeColor=none;fillColor=none;align=left;verticalAlign=middle;spacingLeft=4;spacingRight=4;overflow=hidden;points=[[0,0.5],[1,0.5]];portConstraint=eastwest;rotatable=0;whiteSpace=wrap;html=1;" parent="uA1yaRW771HfkSEceYEn-2" vertex="1">
          <mxGeometry y="60" width="160" height="30" as="geometry" />
        </mxCell>
        <mxCell id="uA1yaRW771HfkSEceYEn-7" value="&lt;span style=&quot;font-size: 16px; text-align: left;&quot;&gt;crm_cust_info&lt;/span&gt;" style="swimlane;fontStyle=0;childLayout=stackLayout;horizontal=1;startSize=30;horizontalStack=0;resizeParent=1;resizeParentMax=0;resizeLast=0;collapsible=1;marginBottom=0;whiteSpace=wrap;html=1;rounded=1;shadow=0;labelBackgroundColor=none;fillColor=#dae8fc;strokeColor=#6c8ebf;fontSize=20;" parent="1" vertex="1">
          <mxGeometry x="450" y="310" width="160" height="60" as="geometry" />
        </mxCell>
        <mxCell id="uA1yaRW771HfkSEceYEn-9" value="&lt;span style=&quot;font-size: 16px;&quot;&gt;cust_id&lt;/span&gt;" style="text;strokeColor=none;fillColor=none;align=left;verticalAlign=middle;spacingLeft=4;spacingRight=4;overflow=hidden;points=[[0,0.5],[1,0.5]];portConstraint=eastwest;rotatable=0;whiteSpace=wrap;html=1;" parent="uA1yaRW771HfkSEceYEn-7" vertex="1">
          <mxGeometry y="30" width="160" height="30" as="geometry" />
        </mxCell>
        <mxCell id="uA1yaRW771HfkSEceYEn-10" value="Transaction information" style="text;html=1;align=center;verticalAlign=middle;whiteSpace=wrap;rounded=0;" parent="1" vertex="1">
          <mxGeometry x="190" y="180" width="130" height="30" as="geometry" />
        </mxCell>
        <mxCell id="uA1yaRW771HfkSEceYEn-11" value="&lt;span style=&quot;font-size: 16px; text-align: left;&quot;&gt;crm_prd_info&lt;/span&gt;" style="swimlane;fontStyle=0;childLayout=stackLayout;horizontal=1;startSize=30;horizontalStack=0;resizeParent=1;resizeParentMax=0;resizeLast=0;collapsible=1;marginBottom=0;whiteSpace=wrap;html=1;rounded=1;shadow=0;labelBackgroundColor=none;fillColor=#dae8fc;strokeColor=#6c8ebf;fontSize=20;" parent="1" vertex="1">
          <mxGeometry x="440" y="140" width="160" height="60" as="geometry" />
        </mxCell>
        <mxCell id="uA1yaRW771HfkSEceYEn-12" value="&lt;span style=&quot;font-size: 16px;&quot;&gt;prm_key&lt;/span&gt;" style="text;strokeColor=none;fillColor=none;align=left;verticalAlign=middle;spacingLeft=4;spacingRight=4;overflow=hidden;points=[[0,0.5],[1,0.5]];portConstraint=eastwest;rotatable=0;whiteSpace=wrap;html=1;" parent="uA1yaRW771HfkSEceYEn-11" vertex="1">
          <mxGeometry y="30" width="160" height="30" as="geometry" />
        </mxCell>
        <mxCell id="uA1yaRW771HfkSEceYEn-13" value="product historical information" style="text;whiteSpace=wrap;" parent="1" vertex="1">
          <mxGeometry x="450" y="110" width="160" height="30" as="geometry" />
        </mxCell>
        <mxCell id="uA1yaRW771HfkSEceYEn-15" style="edgeStyle=orthogonalEdgeStyle;rounded=0;orthogonalLoop=1;jettySize=auto;html=1;entryX=0;entryY=0.5;entryDx=0;entryDy=0;" parent="1" source="uA1yaRW771HfkSEceYEn-3" target="uA1yaRW771HfkSEceYEn-12" edge="1">
          <mxGeometry relative="1" as="geometry" />
        </mxCell>
        <mxCell id="uA1yaRW771HfkSEceYEn-16" style="edgeStyle=orthogonalEdgeStyle;rounded=0;orthogonalLoop=1;jettySize=auto;html=1;entryX=0;entryY=0.5;entryDx=0;entryDy=0;" parent="1" source="uA1yaRW771HfkSEceYEn-6" target="uA1yaRW771HfkSEceYEn-9" edge="1">
          <mxGeometry relative="1" as="geometry" />
        </mxCell>
        <mxCell id="uA1yaRW771HfkSEceYEn-18" value="&lt;div style=&quot;text-align: left;&quot;&gt;&lt;span style=&quot;background-color: transparent; font-size: 16px;&quot;&gt;erp_cust_az12&lt;/span&gt;&lt;/div&gt;" style="swimlane;fontStyle=0;childLayout=stackLayout;horizontal=1;startSize=30;horizontalStack=0;resizeParent=1;resizeParentMax=0;resizeLast=0;collapsible=1;marginBottom=0;whiteSpace=wrap;html=1;rounded=1;shadow=0;labelBackgroundColor=none;fillColor=#fff2cc;strokeColor=#d6b656;fontSize=20;" parent="1" vertex="1">
          <mxGeometry x="860" y="250" width="160" height="60" as="geometry" />
        </mxCell>
        <mxCell id="uA1yaRW771HfkSEceYEn-19" value="&lt;span style=&quot;font-size: 16px;&quot;&gt;cid&lt;/span&gt;" style="text;align=left;verticalAlign=middle;spacingLeft=4;spacingRight=4;overflow=hidden;points=[[0,0.5],[1,0.5]];portConstraint=eastwest;rotatable=0;whiteSpace=wrap;html=1;" parent="uA1yaRW771HfkSEceYEn-18" vertex="1">
          <mxGeometry y="30" width="160" height="30" as="geometry" />
        </mxCell>
        <mxCell id="uA1yaRW771HfkSEceYEn-20" value="extra customer info" style="text;whiteSpace=wrap;align=center;" parent="1" vertex="1">
          <mxGeometry x="850" y="220" width="160" height="30" as="geometry" />
        </mxCell>
        <mxCell id="uA1yaRW771HfkSEceYEn-22" value="&lt;div style=&quot;text-align: left;&quot;&gt;&lt;span style=&quot;background-color: transparent; font-size: 16px;&quot;&gt;erp_loc_a101&lt;/span&gt;&lt;/div&gt;" style="swimlane;fontStyle=0;childLayout=stackLayout;horizontal=1;startSize=30;horizontalStack=0;resizeParent=1;resizeParentMax=0;resizeLast=0;collapsible=1;marginBottom=0;whiteSpace=wrap;html=1;rounded=1;shadow=0;labelBackgroundColor=none;fillColor=#fff2cc;strokeColor=#d6b656;fontSize=20;" parent="1" vertex="1">
          <mxGeometry x="860" y="390" width="160" height="60" as="geometry" />
        </mxCell>
        <mxCell id="uA1yaRW771HfkSEceYEn-23" value="&lt;span style=&quot;font-size: 16px;&quot;&gt;cid&lt;/span&gt;" style="text;strokeColor=none;fillColor=none;align=left;verticalAlign=middle;spacingLeft=4;spacingRight=4;overflow=hidden;points=[[0,0.5],[1,0.5]];portConstraint=eastwest;rotatable=0;whiteSpace=wrap;html=1;" parent="uA1yaRW771HfkSEceYEn-22" vertex="1">
          <mxGeometry y="30" width="160" height="30" as="geometry" />
        </mxCell>
        <mxCell id="uA1yaRW771HfkSEceYEn-24" value="customer country" style="text;whiteSpace=wrap;align=center;" parent="1" vertex="1">
          <mxGeometry x="850" y="360" width="160" height="30" as="geometry" />
        </mxCell>
        <mxCell id="uA1yaRW771HfkSEceYEn-27" value="&lt;div style=&quot;text-align: left;&quot;&gt;&lt;span style=&quot;font-size: 16px;&quot;&gt;erp_px_cat_g1v2&lt;/span&gt;&lt;/div&gt;" style="swimlane;fontStyle=0;childLayout=stackLayout;horizontal=1;startSize=30;horizontalStack=0;resizeParent=1;resizeParentMax=0;resizeLast=0;collapsible=1;marginBottom=0;whiteSpace=wrap;html=1;rounded=1;shadow=0;labelBackgroundColor=none;fillColor=#fff2cc;strokeColor=#d6b656;fontSize=20;" parent="1" vertex="1">
          <mxGeometry x="860" y="100" width="160" height="60" as="geometry" />
        </mxCell>
        <mxCell id="uA1yaRW771HfkSEceYEn-28" value="&lt;span style=&quot;font-size: 16px;&quot;&gt;ID&lt;/span&gt;" style="text;strokeColor=none;fillColor=none;align=left;verticalAlign=middle;spacingLeft=4;spacingRight=4;overflow=hidden;points=[[0,0.5],[1,0.5]];portConstraint=eastwest;rotatable=0;whiteSpace=wrap;html=1;" parent="uA1yaRW771HfkSEceYEn-27" vertex="1">
          <mxGeometry y="30" width="160" height="30" as="geometry" />
        </mxCell>
        <mxCell id="uA1yaRW771HfkSEceYEn-29" value="product category info" style="text;whiteSpace=wrap;align=center;" parent="1" vertex="1">
          <mxGeometry x="860" y="70" width="160" height="30" as="geometry" />
        </mxCell>
        <mxCell id="uA1yaRW771HfkSEceYEn-30" style="edgeStyle=orthogonalEdgeStyle;rounded=0;orthogonalLoop=1;jettySize=auto;html=1;entryX=0;entryY=0.5;entryDx=0;entryDy=0;" parent="1" source="uA1yaRW771HfkSEceYEn-12" target="uA1yaRW771HfkSEceYEn-28" edge="1">
          <mxGeometry relative="1" as="geometry" />
        </mxCell>
        <mxCell id="uA1yaRW771HfkSEceYEn-31" style="edgeStyle=orthogonalEdgeStyle;rounded=0;orthogonalLoop=1;jettySize=auto;html=1;entryX=-0.008;entryY=0.127;entryDx=0;entryDy=0;entryPerimeter=0;" parent="1" source="uA1yaRW771HfkSEceYEn-9" target="uA1yaRW771HfkSEceYEn-19" edge="1">
          <mxGeometry relative="1" as="geometry" />
        </mxCell>
        <mxCell id="uA1yaRW771HfkSEceYEn-32" style="edgeStyle=orthogonalEdgeStyle;rounded=0;orthogonalLoop=1;jettySize=auto;html=1;entryX=0;entryY=0.5;entryDx=0;entryDy=0;" parent="1" source="uA1yaRW771HfkSEceYEn-9" target="uA1yaRW771HfkSEceYEn-23" edge="1">
          <mxGeometry relative="1" as="geometry" />
        </mxCell>
        <mxCell id="uA1yaRW771HfkSEceYEn-33" value="" style="rounded=1;whiteSpace=wrap;html=1;fillColor=none;dashed=1;" parent="1" vertex="1">
          <mxGeometry x="140" y="80" width="530" height="330" as="geometry" />
        </mxCell>
        <mxCell id="uA1yaRW771HfkSEceYEn-34" value="&lt;font style=&quot;font-size: 21px;&quot;&gt;CRM&lt;/font&gt;" style="rounded=0;whiteSpace=wrap;html=1;fillColor=#f5f5f5;fontColor=#333333;strokeColor=none;fontStyle=1" parent="1" vertex="1">
          <mxGeometry x="340" y="60" width="120" height="40" as="geometry" />
        </mxCell>
        <mxCell id="uA1yaRW771HfkSEceYEn-35" value="" style="rounded=1;whiteSpace=wrap;html=1;fillColor=none;dashed=1;strokeColor=#d6b656;" parent="1" vertex="1">
          <mxGeometry x="760" y="30" width="360" height="465" as="geometry" />
        </mxCell>
        <mxCell id="uA1yaRW771HfkSEceYEn-36" value="&lt;font style=&quot;font-size: 21px;&quot;&gt;ERP&lt;/font&gt;" style="rounded=0;whiteSpace=wrap;html=1;fillColor=#fff2cc;strokeColor=#d6b656;fontStyle=1" parent="1" vertex="1">
          <mxGeometry x="880" width="120" height="40" as="geometry" />
        </mxCell>
        <mxCell id="DvN9zvWvNREmPjwPhVOK-1" value="Product" style="text;html=1;strokeColor=#b85450;fillColor=#f8cecc;align=center;verticalAlign=middle;whiteSpace=wrap;overflow=hidden;fontSize=15;rounded=1;" vertex="1" parent="1">
          <mxGeometry x="860" y="160" width="160" height="20" as="geometry" />
        </mxCell>
        <mxCell id="DvN9zvWvNREmPjwPhVOK-2" value="Product" style="text;html=1;strokeColor=#b85450;fillColor=#f8cecc;align=center;verticalAlign=middle;whiteSpace=wrap;overflow=hidden;fontSize=15;rounded=1;glass=0;" vertex="1" parent="1">
          <mxGeometry x="440" y="200" width="160" height="20" as="geometry" />
        </mxCell>
        <mxCell id="DvN9zvWvNREmPjwPhVOK-3" value="customer" style="text;html=1;strokeColor=#82b366;fillColor=#d5e8d4;align=center;verticalAlign=middle;whiteSpace=wrap;overflow=hidden;fontSize=15;rounded=1;" vertex="1" parent="1">
          <mxGeometry x="450" y="370" width="160" height="20" as="geometry" />
        </mxCell>
        <mxCell id="DvN9zvWvNREmPjwPhVOK-4" value="customer" style="text;html=1;strokeColor=#82b366;fillColor=#d5e8d4;align=center;verticalAlign=middle;whiteSpace=wrap;overflow=hidden;fontSize=15;rounded=1;" vertex="1" parent="1">
          <mxGeometry x="860" y="310" width="160" height="20" as="geometry" />
        </mxCell>
        <mxCell id="DvN9zvWvNREmPjwPhVOK-5" value="customer" style="text;html=1;strokeColor=#82b366;fillColor=#d5e8d4;align=center;verticalAlign=middle;whiteSpace=wrap;overflow=hidden;fontSize=15;rounded=1;" vertex="1" parent="1">
          <mxGeometry x="860" y="450" width="160" height="20" as="geometry" />
        </mxCell>
        <mxCell id="DvN9zvWvNREmPjwPhVOK-6" value="Sales" style="text;html=1;strokeColor=#9673a6;fillColor=#e1d5e7;align=center;verticalAlign=middle;whiteSpace=wrap;overflow=hidden;fontSize=15;rounded=1;" vertex="1" parent="1">
          <mxGeometry x="180" y="300" width="160" height="20" as="geometry" />
        </mxCell>
      </root>
    </mxGraphModel>
  </diagram>
  <diagram id="1RerbomH_wKRACpyg2KZ" name="Page-2">
    <mxGraphModel dx="1290" dy="607" grid="0" gridSize="10" guides="1" tooltips="1" connect="1" arrows="1" fold="1" page="0" pageScale="1" pageWidth="850" pageHeight="1100" math="0" shadow="0">
      <root>
        <mxCell id="0" />
        <mxCell id="1" parent="0" />
      </root>
    </mxGraphModel>
  </diagram>
</mxfile>
